<svg xmlns="http://www.w3.org/2000/svg" xmlns:xlink="http://www.w3.org/1999/xlink" width="500" zoomAndPan="magnify" viewBox="0 0 375 374.999991" height="500" preserveAspectRatio="xMidYMid meet" version="1.0"><defs><clipPath id="d28c4e8e3b"><path d="M 5.800781 157 L 369.113281 157 L 369.113281 203 L 5.800781 203 Z M 5.800781 157 " clip-rule="nonzero"/></clipPath><clipPath id="9094d5a964"><path d="M 5.800781 263 L 369.113281 263 L 369.113281 308.976562 L 5.800781 308.976562 Z M 5.800781 263 " clip-rule="nonzero"/></clipPath><clipPath id="4224ab7037"><path d="M 5.800781 51.289062 L 369.113281 51.289062 L 369.113281 97 L 5.800781 97 Z M 5.800781 51.289062 " clip-rule="nonzero"/></clipPath><clipPath id="4feb0b757a"><path d="M 19.921875 178 L 369 178 L 369 222 L 19.921875 222 Z M 19.921875 178 " clip-rule="nonzero"/></clipPath><clipPath id="ed40690d76"><path d="M 19.921875 279 L 369 279 L 369 323.363281 L 19.921875 323.363281 Z M 19.921875 279 " clip-rule="nonzero"/></clipPath><clipPath id="b934d1a363"><path d="M 19.921875 76.164062 L 369 76.164062 L 369 120 L 19.921875 120 Z M 19.921875 76.164062 " clip-rule="nonzero"/></clipPath></defs><g clip-path="url(#d28c4e8e3b)"><path fill="#000000" d="M 346.40625 157.410156 L 28.507812 157.410156 C 15.96875 157.410156 5.800781 167.582031 5.800781 180.132812 C 5.800781 192.683594 15.96875 202.859375 28.507812 202.859375 L 346.40625 202.859375 C 358.949219 202.859375 369.113281 192.683594 369.113281 180.132812 C 369.113281 167.582031 358.949219 157.410156 346.40625 157.410156 Z M 346.40625 157.410156 " fill-opacity="1" fill-rule="nonzero"/></g><g clip-path="url(#9094d5a964)"><path fill="#000000" d="M 346.40625 263.457031 L 28.507812 263.457031 C 15.96875 263.457031 5.800781 273.628906 5.800781 286.179688 C 5.800781 298.730469 15.96875 308.90625 28.507812 308.90625 L 346.40625 308.90625 C 358.949219 308.90625 369.113281 298.730469 369.113281 286.179688 C 369.113281 273.628906 358.949219 263.457031 346.40625 263.457031 Z M 346.40625 263.457031 " fill-opacity="1" fill-rule="nonzero"/></g><g clip-path="url(#4224ab7037)"><path fill="#000000" d="M 28.507812 96.808594 L 346.40625 96.808594 C 358.949219 96.808594 369.113281 86.636719 369.113281 74.085938 C 369.113281 61.535156 358.949219 51.359375 346.40625 51.359375 L 28.507812 51.359375 C 15.96875 51.359375 5.800781 61.535156 5.800781 74.085938 C 5.800781 86.636719 15.96875 96.808594 28.507812 96.808594 Z M 28.507812 96.808594 " fill-opacity="1" fill-rule="nonzero"/></g><g clip-path="url(#4feb0b757a)"><path fill="#cdbbbb" d="M 347.359375 178.105469 L 41.75 178.105469 C 29.695312 178.105469 19.921875 187.875 19.921875 199.933594 C 19.921875 211.988281 29.695312 221.761719 41.75 221.761719 L 347.359375 221.761719 C 359.417969 221.761719 369.1875 211.988281 369.1875 199.933594 C 369.1875 187.875 359.417969 178.105469 347.359375 178.105469 Z M 347.359375 178.105469 " fill-opacity="1" fill-rule="nonzero"/></g><g clip-path="url(#ed40690d76)"><path fill="#cdbbbb" d="M 347.359375 279.972656 L 41.75 279.972656 C 29.695312 279.972656 19.921875 289.746094 19.921875 301.800781 C 19.921875 313.859375 29.695312 323.632812 41.75 323.632812 L 347.359375 323.632812 C 359.417969 323.632812 369.1875 313.859375 369.1875 301.800781 C 369.1875 289.746094 359.417969 279.972656 347.359375 279.972656 Z M 347.359375 279.972656 " fill-opacity="1" fill-rule="nonzero"/></g><g clip-path="url(#b934d1a363)"><path fill="#cdbbbb" d="M 41.75 119.894531 L 347.359375 119.894531 C 359.417969 119.894531 369.1875 110.121094 369.1875 98.0625 C 369.1875 86.007812 359.417969 76.234375 347.359375 76.234375 L 41.75 76.234375 C 29.695312 76.234375 19.921875 86.007812 19.921875 98.0625 C 19.921875 110.121094 29.695312 119.894531 41.75 119.894531 Z M 41.75 119.894531 " fill-opacity="1" fill-rule="nonzero"/></g></svg>